<svg width="32" height="32" viewBox="0 0 32 32" fill="none" xmlns="http://www.w3.org/2000/svg">
<rect width="32" height="32" rx="16" fill="#80828C" fill-opacity="0.16"/>
<path fill-rule="evenodd" clip-rule="evenodd" d="M16 7.66666C20.6024 7.66666 24.3334 11.3976 24.3334 16C24.3334 20.6024 20.6024 24.3333 16 24.3333C11.3976 24.3333 7.66669 20.6024 7.66669 16C7.66669 11.3976 11.3976 7.66666 16 7.66666ZM16 20.1667C14.2773 20.1667 12.9074 20.5773 11.9199 21.2718C13.048 22.1467 14.4633 22.6667 16 22.6667C17.5368 22.6667 18.952 22.1467 20.0796 21.2731C19.0933 20.5775 17.7231 20.1667 16 20.1667ZM9.33335 16C9.33335 12.3181 12.3181 9.33332 16 9.33332C19.6819 9.33332 22.6667 12.3181 22.6667 16C22.6667 17.5409 22.1439 18.9597 21.2656 20.0882C20.0386 19.133 18.3019 18.5 16 18.5C13.6982 18.5 11.9615 19.133 10.7341 20.0888C9.85615 18.9597 9.33335 17.5409 9.33335 16ZM16 11C17.841 11 19.3334 12.4924 19.3334 14.3333C19.3334 16.1743 17.841 17.6667 16 17.6667C14.1591 17.6667 12.6667 16.1743 12.6667 14.3333C12.6667 12.4924 14.1591 11 16 11ZM14.3334 14.3333C14.3334 13.4128 15.0795 12.6667 16 12.6667C16.9205 12.6667 17.6667 13.4128 17.6667 14.3333C17.6667 15.2538 16.9205 16 16 16C15.0795 16 14.3334 15.2538 14.3334 14.3333Z" fill="#696A72"/>
</svg>
