<svg width="16" height="16" viewBox="0 0 16 16" fill="none" xmlns="http://www.w3.org/2000/svg">
<path fill-rule="evenodd" clip-rule="evenodd" d="M11.5851 10.272L14.5243 13.2112C14.7141 13.401 14.7141 13.7087 14.5243 13.8985L13.8985 14.5243C13.7087 14.7141 13.4009 14.7141 13.2111 14.5243L10.2719 11.5851C9.90933 11.2225 9.90933 10.6346 10.2719 10.272C10.6346 9.90936 11.2225 9.90936 11.5851 10.272ZM9.86885 2.79781C11.8215 4.75043 11.8215 7.91626 9.86885 9.86888C7.91623 11.8215 4.7504 11.8215 2.79778 9.86888C0.845158 7.91626 0.845158 4.75043 2.79778 2.79781C4.7504 0.845188 7.91623 0.845188 9.86885 2.79781ZM3.74059 3.74062C2.30867 5.17254 2.30867 7.49415 3.74059 8.92607C5.17251 10.358 7.49412 10.358 8.92604 8.92607C10.358 7.49415 10.358 5.17254 8.92604 3.74062C7.49412 2.3087 5.17251 2.3087 3.74059 3.74062Z" fill="#81828A"/>
</svg>
