<svg width="20" height="20" viewBox="0 0 20 20" fill="none" xmlns="http://www.w3.org/2000/svg">
<path fill-rule="evenodd" clip-rule="evenodd" d="M4.16665 3.83334C4.16665 3.5572 4.3905 3.33334 4.66665 3.33334H7.16665H7.83331C8.10946 3.33334 8.33331 3.5572 8.33331 3.83334V4.50001V7.00001C8.33331 7.27615 8.10946 7.50001 7.83331 7.50001H7.16665C6.8905 7.50001 6.66665 7.27615 6.66665 7.00001V6.27317C5.64373 7.1887 4.99998 8.51918 4.99998 10C4.99998 12.4775 6.80189 14.5341 9.16665 14.9309V16.6151C5.87805 16.205 3.33331 13.3997 3.33331 10C3.33331 8.00886 4.20624 6.22158 5.59027 5.00001H4.66665C4.3905 5.00001 4.16665 4.77615 4.16665 4.50001V3.83334ZM10.8333 3.38492V5.06914C13.1981 5.46587 15 7.52251 15 10C15 11.4808 14.3562 12.8113 13.3333 13.7269V13C13.3333 12.7239 13.1095 12.5 12.8333 12.5H12.1666C11.8905 12.5 11.6666 12.7239 11.6666 13V15.5V16.1667C11.6666 16.4428 11.8905 16.6667 12.1666 16.6667H12.8333H15.3333C15.6095 16.6667 15.8333 16.4428 15.8333 16.1667V15.5C15.8333 15.2239 15.6095 15 15.3333 15H14.4097C15.7937 13.7784 16.6666 11.9912 16.6666 10C16.6666 6.60033 14.1219 3.795 10.8333 3.38492Z" fill="#81828A"/>
</svg>
