<svg width="20" height="20" viewBox="0 0 20 20" fill="none" xmlns="http://www.w3.org/2000/svg">
<path d="M11.1785 8.8215C11.8294 9.47238 12.8846 9.47238 13.5355 8.8215C14.1864 8.17063 14.1864 7.11535 13.5355 6.46448C12.8846 5.81361 11.8294 5.81361 11.1785 6.46448C10.5276 7.11535 10.5276 8.17063 11.1785 8.8215Z" fill="#808080"/>
<path fill-rule="evenodd" clip-rule="evenodd" d="M13.6427 2.60252C14.7307 2.56075 15.784 2.82038 16.4818 3.5182C17.1796 4.21602 17.4392 5.2693 17.3975 6.35729C17.3549 7.46529 17.0006 8.72408 16.3279 9.98945C15.7361 11.1028 14.8914 12.2344 13.7713 13.2911C13.6234 16.3627 11.5292 18.1715 10.7625 18.7367C10.2476 19.1163 9.5808 19.0089 9.18066 18.6088L6.46444 15.8926L3.51817 16.4818L4.10742 13.5356L1.39115 10.8193C0.991004 10.4191 0.883684 9.7523 1.26321 9.23746C1.82845 8.47068 3.63731 6.37656 6.7089 6.22864C7.76566 5.10861 8.89717 4.26392 10.0105 3.67207C11.2759 2.99942 12.5347 2.64505 13.6427 2.60252ZM5.7254 10.4395C5.45559 10.9376 5.20093 11.4695 4.96517 12.0363L7.96371 15.0348C8.53051 14.7991 9.06236 14.5444 9.5605 14.2746L5.7254 10.4395ZM11.0209 13.378C12.8667 12.0967 14.112 10.6072 14.8563 9.20714C15.4331 8.12201 15.7008 7.10722 15.732 6.29336C15.764 5.45948 15.5491 4.94258 15.3033 4.69671C15.0574 4.45084 14.5405 4.23595 13.7066 4.26796C12.8928 4.2992 11.878 4.56689 10.7928 5.14372C9.39282 5.88796 7.90324 7.13325 6.62202 8.97908L11.0209 13.378ZM5.08868 8.26994C4.58616 9.02193 4.11848 9.85434 3.69939 10.7705L2.84847 9.91958C3.27363 9.41992 4.02166 8.70519 5.08868 8.26994ZM9.22949 16.3006L10.0804 17.1515C10.58 16.7263 11.2947 15.9783 11.73 14.9114C10.978 15.4139 10.1456 15.8815 9.22949 16.3006Z" fill="#808080"/>
</svg>
